<svg width="111" height="72" viewBox="0 0 111 72" fill="none" xmlns="http://www.w3.org/2000/svg">
<g clip-path="url(#clip0_1_843)">
<path d="M76.4042 14.5303L67.548 5.6395C66.161 4.24705 64.3197 3.4812 62.3571 3.4812H49.8323C47.8731 3.4812 46.0284 4.24705 44.6413 5.6395L35.7852 14.5303C34.3982 15.9227 33.6353 17.7712 33.6353 19.7415V32.3153C33.6353 34.2821 34.3982 36.1341 35.7852 37.5266L44.6413 46.4173C46.0284 47.8098 47.8696 48.5756 49.8323 48.5756H62.3571C64.3163 48.5756 66.161 47.8098 67.548 46.4173L76.4042 37.5266C77.7912 36.1341 78.5541 34.2856 78.5541 32.3153V19.7415C78.5506 17.7712 77.7877 15.9227 76.4042 14.5303ZM76.3799 19.7415V32.3153C76.3799 32.733 76.3244 33.1403 76.2273 33.5407L68.2762 23.7831C68.6611 23.2818 68.7825 22.6413 68.6403 22.053L76.1545 18.2307C76.3036 18.7146 76.3799 19.2228 76.3799 19.7415ZM36.0903 33.9758C35.91 33.4432 35.8129 32.8827 35.8129 32.3118V19.7415C35.8129 19.2855 35.8788 18.8364 35.9933 18.4013L50.9731 32.4685C50.8517 32.6773 50.772 32.9036 50.7304 33.1369L36.0903 33.9758ZM48.6568 17.9C48.7435 18.2516 48.9203 18.5823 49.1942 18.8573C49.541 19.2054 49.9814 19.4004 50.4356 19.4456L52.0203 31.5704C51.8781 31.6261 51.7394 31.6957 51.6077 31.7827L36.9746 18.0392L48.6568 17.9ZM54.0176 31.8906C53.7021 31.6365 53.3276 31.4903 52.9427 31.452L51.358 19.3273C51.6215 19.2263 51.8677 19.0731 52.0827 18.8608C52.2041 18.7389 52.3046 18.6032 52.3913 18.4639L64.6249 22.3802C64.5971 22.7283 64.6596 23.0799 64.8087 23.4036L54.0176 31.8906ZM52.6722 17.5693C52.6999 17.1968 52.6306 16.8209 52.4572 16.4797L64.1429 6.57592L65.9426 20.6188C65.6756 20.7197 65.4259 20.8729 65.2144 21.0887C65.093 21.2105 64.9924 21.3463 64.9058 21.489L52.6722 17.5693ZM68.1028 21.0852C67.7561 20.7371 67.3192 20.5422 66.8684 20.4969L65.1346 6.96232L75.5962 17.4649L68.2207 21.214C68.1826 21.1723 68.1445 21.127 68.1028 21.0852ZM63.224 6.13033L51.8539 15.7661C51.4828 15.4911 51.0425 15.3553 50.6021 15.3623L48.2857 6.13033H63.224ZM54.5898 32.6286L65.3808 24.1347C65.575 24.2913 65.79 24.4027 66.0154 24.4793L64.129 45.2964L54.4268 34.6477C54.836 34.0454 54.8914 33.2761 54.5898 32.6286ZM46.1809 7.18163C46.5346 6.82656 46.9369 6.52718 47.3703 6.29046L49.7005 15.5851C49.5167 15.679 49.3468 15.8044 49.1942 15.9575C48.9099 16.243 48.7261 16.5946 48.6464 16.9636L36.5273 17.1133C36.7492 16.7373 37.0092 16.3857 37.3248 16.0689L46.1809 7.18163ZM37.3248 35.9809C36.9988 35.6537 36.7249 35.2847 36.4995 34.8913L50.7824 34.0733C50.876 34.3901 51.0459 34.6929 51.2956 34.9436C51.3857 35.0341 51.4794 35.1107 51.5799 35.1803L47.4258 45.7977C46.9715 45.5575 46.5485 45.2477 46.1775 44.8752L37.3248 35.9809ZM49.8323 46.3895C49.3017 46.3895 48.7816 46.3059 48.2857 46.1493L52.4468 35.5145C52.8872 35.5771 53.3414 35.4971 53.7368 35.2743L63.699 46.205C63.2656 46.3233 62.8148 46.3895 62.3571 46.3895H49.8323ZM66.0119 44.8717C65.7172 45.1676 65.3877 45.4182 65.0341 45.6341L66.9412 24.5629C67.1527 24.5315 67.3608 24.4724 67.555 24.3749L75.8598 34.5641C75.6101 35.0828 75.2772 35.5667 74.8646 35.9809L66.0119 44.8717Z" fill="url(#paint0_linear_1_843)"/>
<path d="M20.2298 62.5037C20.2298 64.3035 21.6965 65.776 23.4893 65.776H29.6893V68.728H23.4893C22.2999 68.728 21.1799 68.3799 20.2298 67.7881C19.4149 67.2798 18.7214 66.5941 18.2255 65.776C17.6256 64.8222 17.2893 63.6978 17.2893 62.5037V61.5638C17.2893 60.3698 17.6222 59.2454 18.2255 58.2916C19.349 56.4675 21.3394 55.3396 23.4893 55.3396H28.2364C29.0374 55.3396 29.6858 55.9906 29.6858 56.7947V58.2881H23.4893C21.7 58.2881 20.2298 59.778 20.2298 61.5604V62.5037Z" fill="url(#paint1_linear_1_843)"/>
<path d="M31.0208 55.343H35.7506H38.6911H41.9679C42.7689 55.343 43.4173 55.994 43.4173 56.7981V58.2915H38.6876V68.7244H35.7471V58.2915H31.0208V55.343Z" fill="url(#paint2_linear_1_843)"/>
<path d="M61.4209 61.5673V62.5072C61.4209 64.3069 62.8877 65.7794 64.6804 65.7794H67.9399V63.5132H66.4523C65.6513 63.5132 65.0029 62.8622 65.0029 62.0581V60.5647H67.9434H69.431C70.232 60.5647 70.8804 61.2157 70.8804 62.0198V63.5132V65.7794V68.7314H64.6804C63.491 68.7314 62.3675 68.3833 61.4209 67.7915C60.606 67.2833 59.9229 66.5975 59.4167 65.7794C58.8168 64.8256 58.4804 63.7012 58.4804 62.5072V61.5673C58.4804 60.3732 58.8133 59.2488 59.4167 58.295C59.9229 57.4769 60.606 56.7912 61.4209 56.2829C62.3675 55.6911 63.491 55.343 64.6804 55.343H69.4275C70.2285 55.343 70.8769 55.994 70.8769 56.7981V58.2915H67.9364H64.6769C62.8911 58.295 61.4209 59.7814 61.4209 61.5673Z" fill="url(#paint3_linear_1_843)"/>
<path d="M85.9469 55.343H88.8874V55.3569L95.4064 63.9414V55.3465H96.894C97.695 55.3465 98.3434 55.9975 98.3434 56.8016V67.8159V68.7279H95.4029H95.3371L88.8839 60.2235V68.7279H85.9435V56.3491V55.343H85.9469Z" fill="url(#paint4_linear_1_843)"/>
<path d="M99.6784 55.343H102.619H103.309C105.178 55.3883 105.799 55.994 105.799 56.7981V58.2915H105.012H102.619V60.5577H105.996H106.305H106.721V63.5097H106.305H105.996H102.619V65.7759H106.985H108.632V68.7279H102.615H99.675V65.7759V63.5097V58.2915V55.343H99.6784Z" fill="url(#paint5_linear_1_843)"/>
<path d="M51.0772 55.3291C49.8878 55.3291 48.7678 55.6772 47.8177 56.269C46.0527 57.369 44.8772 59.3254 44.8772 61.5533V62.4932C44.8772 64.7212 46.0527 66.6776 47.8177 67.7776C48.7678 68.3659 49.8878 68.7175 51.0772 68.7175C54.4823 68.7175 57.2772 65.9152 57.2772 62.4932V61.5533C57.2772 58.1314 54.4858 55.3291 51.0772 55.3291ZM54.6418 62.9771C54.6418 63.3148 54.5066 63.642 54.2673 63.8822L52.9184 65.2364C52.6792 65.4766 52.3567 65.6123 52.0169 65.6123H50.1097C49.7734 65.6123 49.4474 65.4766 49.2081 65.2364L47.8593 63.8822C47.62 63.642 47.4848 63.3183 47.4848 62.9771V61.0625C47.4848 60.7248 47.62 60.3976 47.8593 60.1574L49.2081 58.8033C49.4474 58.5631 49.7699 58.4273 50.1097 58.4273H52.0169C52.3532 58.4273 52.6792 58.5631 52.9184 58.8033L54.2673 60.1574C54.5066 60.3976 54.6418 60.7214 54.6418 61.0625V62.9771Z" fill="url(#paint6_linear_1_843)"/>
<path d="M9.81321 55.3291C8.62384 55.3291 7.50382 55.6772 6.55371 56.269C4.78872 57.369 3.61322 59.3254 3.61322 61.5533V62.4932C3.61322 64.7212 4.78872 66.6776 6.55371 67.7776C7.50382 68.3659 8.62384 68.7175 9.81321 68.7175C13.2184 68.7175 16.0132 65.9152 16.0132 62.4932V61.5533C16.0132 58.1314 13.2218 55.3291 9.81321 55.3291ZM13.3779 62.9771C13.3779 63.3148 13.2426 63.642 13.0034 63.8822L11.6545 65.2364C11.4152 65.4766 11.0927 65.6123 10.7529 65.6123H8.84577C8.50941 65.6123 8.18346 65.4766 7.9442 65.2364L6.59532 63.8822C6.35606 63.642 6.22082 63.3183 6.22082 62.9771V61.0625C6.22082 60.7248 6.35606 60.3976 6.59532 60.1574L7.9442 58.8033C8.18346 58.5631 8.50595 58.4273 8.84577 58.4273H10.7529C11.0893 58.4273 11.4152 58.5631 11.6545 58.8033L13.0034 60.1574C13.2426 60.3976 13.3779 60.7214 13.3779 61.0625V62.9771Z" fill="url(#paint7_linear_1_843)"/>
<path d="M78.6269 55.3291C77.4375 55.3291 76.3175 55.6772 75.3674 56.269C73.6024 57.369 72.4269 59.3254 72.4269 61.5533V62.4932C72.4269 64.7212 73.6024 66.6776 75.3674 67.7776C76.3175 68.3659 77.4375 68.7175 78.6269 68.7175C82.032 68.7175 84.8269 65.9152 84.8269 62.4932V61.5533C84.8234 58.1314 82.032 55.3291 78.6269 55.3291ZM82.1916 62.9771C82.1916 63.3148 82.0563 63.642 81.8171 63.8822L80.4682 65.2364C80.2289 65.4766 79.9064 65.6123 79.5666 65.6123H77.6595C77.3231 65.6123 76.9972 65.4766 76.7579 65.2364L75.409 63.8822C75.1698 63.642 75.0345 63.3183 75.0345 62.9771V61.0625C75.0345 60.7248 75.1698 60.3976 75.409 60.1574L76.7579 58.8033C76.9972 58.5631 77.3196 58.4273 77.6595 58.4273H79.5666C79.903 58.4273 80.2289 58.5631 80.4682 58.8033L81.8171 60.1574C82.0563 60.3976 82.1916 60.7214 82.1916 61.0625V62.9771Z" fill="url(#paint8_linear_1_843)"/>
</g>
<defs>
<linearGradient id="paint0_linear_1_843" x1="34.2684" y1="5.59671" x2="97.0305" y2="63.8852" gradientUnits="userSpaceOnUse">
<stop stop-color="#00B1EB"/>
<stop offset="1" stop-color="#202468"/>
</linearGradient>
<linearGradient id="paint1_linear_1_843" x1="-26.221" y1="49.4285" x2="196.826" y2="103.284" gradientUnits="userSpaceOnUse">
<stop stop-color="#F39400"/>
<stop offset="0.7793" stop-color="#E30613"/>
</linearGradient>
<linearGradient id="paint2_linear_1_843" x1="-25.4795" y1="46.3575" x2="197.568" y2="100.213" gradientUnits="userSpaceOnUse">
<stop stop-color="#F39400"/>
<stop offset="0.7793" stop-color="#E30613"/>
</linearGradient>
<linearGradient id="paint3_linear_1_843" x1="-23.9349" y1="39.9605" x2="199.113" y2="93.8158" gradientUnits="userSpaceOnUse">
<stop stop-color="#F39400"/>
<stop offset="0.7793" stop-color="#E30613"/>
</linearGradient>
<linearGradient id="paint4_linear_1_843" x1="-22.5626" y1="34.2771" x2="200.485" y2="88.1323" gradientUnits="userSpaceOnUse">
<stop stop-color="#F39400"/>
<stop offset="0.7793" stop-color="#E30613"/>
</linearGradient>
<linearGradient id="paint5_linear_1_843" x1="-21.991" y1="31.9098" x2="201.056" y2="85.765" gradientUnits="userSpaceOnUse">
<stop stop-color="#F39400"/>
<stop offset="0.7793" stop-color="#E30613"/>
</linearGradient>
<linearGradient id="paint6_linear_1_843" x1="-24.8028" y1="43.555" x2="198.245" y2="97.4102" gradientUnits="userSpaceOnUse">
<stop stop-color="#F39400"/>
<stop offset="0.7793" stop-color="#E30613"/>
</linearGradient>
<linearGradient id="paint7_linear_1_843" x1="-27.0928" y1="53.0392" x2="195.955" y2="106.894" gradientUnits="userSpaceOnUse">
<stop stop-color="#F39400"/>
<stop offset="0.7793" stop-color="#E30613"/>
</linearGradient>
<linearGradient id="paint8_linear_1_843" x1="-23.2741" y1="37.2235" x2="199.773" y2="91.0788" gradientUnits="userSpaceOnUse">
<stop stop-color="#F39400"/>
<stop offset="0.7793" stop-color="#E30613"/>
</linearGradient>
<clipPath id="clip0_1_843">
<rect width="111" height="72" fill="white"/>
</clipPath>
</defs>
</svg>
